<svg xmlns="http://www.w3.org/2000/svg" viewBox="0 0 652 116.15"><defs><style>.cls-1{fill:#fff;}.cls-2{fill:#f5b400;}</style></defs><g id="Capa_2" data-name="Capa 2"><g id="Capa_1-2" data-name="Capa 1"><path class="cls-1" d="M187.51.14V16.27H170.08V.14Zm-.58,26.16V86.6H170.37V26.3Z"/><path class="cls-1" d="M237.93,41c-6.82,0-13.65,3.49-16.85,6.1V86.6H204.51V26.3h16.57v6.24c4.07-2.9,12.21-6.82,20.2-6.82,19.17,0,25.86,12.2,25.86,31.23V86.6H249.85V57.25C249.85,47.22,247.38,41,237.93,41Z"/><path class="cls-1" d="M304.78,24.44V26.3h12.35V40.68H304.78V86.6H288.07V40.68h-7.83V26.3h8V23.57c0-18.6,12.07-28,35.6-21.5L324,16.89C312.48,12.68,304.78,13.84,304.78,24.44Z"/><path class="cls-1" d="M357.24,87.47c-21.21,0-33.86-14.09-33.86-30.8,0-17,12.79-31.1,34-31.1s34,14.09,34,31.1C391.38,73.38,378.59,87.47,357.24,87.47Zm.14-46.79c-10.46,0-17.14,7.41-17.14,15.69,0,8.72,6.68,15.7,17,15.7,10.61,0,17-7,17-15.4S368.14,40.68,357.38,40.68Z"/><path class="cls-1" d="M442.83,87.32c-8.57,0-17-4.36-20.92-7.55l.14,6.83H405.48V0h16.71V25.86c0,1.45,0,5.09-.14,6.68,4.07-3.05,12.35-7,20.78-7,18.45,0,30.22,13.22,30.22,30.51S460.84,87.32,442.83,87.32Zm-2.76-46.78c-9.45,0-18,6.24-17.88,6.24v19c3.64,2.76,10.9,6.54,17.88,6.54,9.73,0,16-7.27,16-16S449.8,40.54,440.07,40.54Z"/><path class="cls-1" d="M503.72,47.51V86.6H487.15V26.44h16.57l-.15,7c2.62-3.35,11.19-8.72,23.83-7.85V42C515.78,39.37,507.06,43.59,503.72,47.51Z"/><path class="cls-1" d="M587.41,87.32h-14.1s0-6.33,0-7.84c-2.62,4.21-11.77,8.13-18.89,8.13-11.77,0-21.07-6.54-21.07-17.87,0-21.5,37.78-15.84,37.78-25.72,0-3.92-3.49-5.23-7.56-5.23-7,0-14.82,1.6-25.28,6.25V31.53a55.09,55.09,0,0,1,25.43-6c13.8,0,23.68,6.68,23.68,18.89V87.32ZM551.52,69c0,3.63,2.91,5.08,7.12,5.08,3.2,0,11.77-1.74,12.06-10.46l.15-4.79C566.78,62.18,551.52,61.9,551.52,69Z"/><path class="cls-1" d="M629.62,87.61c-13.37,0-21.94-3-27.46-6.24v-14a48.4,48.4,0,0,0,24.7,6.83c3.19,0,7.41-.59,7.41-4.07,0-8.58-31.53-5.09-31.53-26.16,0-10.31,8.86-18.45,23-18.45a49.23,49.23,0,0,1,23.69,5.67V45a42.58,42.58,0,0,0-21.65-6.25c-3.49,0-7.41.73-7.41,4.36,0,8,31.68,5.52,31.68,25.57C652,79.33,643.28,87.61,629.62,87.61Z"/><path class="cls-2" d="M43.24,73.28a7.83,7.83,0,0,1,5.17-3.81L50.63,69V81c.15,0,.28-.05.44-.05a6.36,6.36,0,0,1,2.22.4v-13l8.22-1.77a10.51,10.51,0,0,0,8.36,6.45V86a6.26,6.26,0,0,1,2.66.07V73.11a10.48,10.48,0,0,0,8.36-6.45l8.22,1.77V81.68a6.4,6.4,0,0,1,2.12-.37c.19,0,.36,0,.55,0V69l2.21.47a7.84,7.84,0,0,1,5.44,4.39,5.4,5.4,0,0,1,2.26-1.44,10.53,10.53,0,0,0-7.14-5.56l-3.81-.81h0l-9.15-2a12.26,12.26,0,0,0,.1-1.36V58.48a19.4,19.4,0,0,0,9-16.35V38.66h2.1a1.33,1.33,0,0,0,1.33-1.33V32.76a1.34,1.34,0,0,0-1.33-1.33h-1A20.51,20.51,0,0,0,76,11.71v-3a1.34,1.34,0,0,0-1.33-1.34H67.78a1.34,1.34,0,0,0-1.34,1.34v3a20.51,20.51,0,0,0-15.8,19.72h-1a1.34,1.34,0,0,0-1.34,1.33v4.57a1.33,1.33,0,0,0,1.34,1.33h2.09v3.47a19.4,19.4,0,0,0,9,16.35v4.25a12.26,12.26,0,0,0,.1,1.36l-9.15,2h0l-3.82.82a10.49,10.49,0,0,0-6.47,4.43A5.53,5.53,0,0,1,43.24,73.28ZM79,62.73a7.8,7.8,0,1,1-15.6,0V59.92a19.48,19.48,0,0,0,15.6,0ZM76,14.44a17.88,17.88,0,0,1,13.14,17H82.81v-7.8a1.34,1.34,0,1,0-2.67,0v7.8H76ZM69.11,10h4.18V31.43H69.11Zm-2.67,4.42v17H62.26v-7.8a1.34,1.34,0,0,0-2.67,0v7.8H53.3A17.88,17.88,0,0,1,66.44,14.44ZM51,36V34.1H91.39V36Zm3.42,6.13h0V38.66H88v3.47a16.77,16.77,0,1,1-33.54,0Z"/><path class="cls-1" d="M99.67,72.73a39.77,39.77,0,1,1,0-56.25,39.76,39.76,0,0,1,0,56.25ZM35.15,87.62,12,110.78a2.32,2.32,0,0,1-3.3,0l-3.31-3.31a2.34,2.34,0,0,1,0-3.3L28.53,81a2.41,2.41,0,0,1,3.31,0l3.31,3.32a2.34,2.34,0,0,1,0,3.3ZM103,13.18A44.42,44.42,0,0,0,38.54,74.3l-3.39,3.4a7,7,0,0,0-9.93,0h0L2.06,100.86a7,7,0,0,0,0,9.93h0l3.3,3.3h0a7,7,0,0,0,9.93,0L38.45,90.93a7,7,0,0,0,0-9.92h0l3.39-3.39A44.42,44.42,0,0,0,103,13.18Z"/></g></g></svg>